<?xml version="1.0" encoding="utf-8"?>
<!-- Generator: Adobe Illustrator 28.2.0, SVG Export Plug-In . SVG Version: 6.00 Build 0)  -->
<svg version="1.1" id="Layer_1" xmlns="http://www.w3.org/2000/svg" xmlns:xlink="http://www.w3.org/1999/xlink" x="0px" y="0px"
	 viewBox="0 0 800 800" style="enable-background:new 0 0 800 800;" xml:space="preserve">
<style type="text/css">
	.st0{fill:#FFFFFF;}
</style>
<path class="st0" d="M171.6,355.4l110.6-71.2c-29.2-34.5-57.8-68.2-86.3-101.9c-5.6-6.7-11.2-13.4-17-20
	c-13.2-15-13.2-30.4,0.1-44.9c1.2-1.3,2.5-2.4,3.8-3.6c47-44,36.4-38.7,89.1-19.9c48.2,17.2,95.6,36.9,141.9,58.7
	c30.4,14.3,54.6,17.7,84-4.9c39.4-30.5,85.8-50.6,135-58.6c40.2-6.5,79.7-6.1,119.4,5.1c54,15.3,51.7,70.4,25.9,96.6
	C764,204.7,748.6,217.2,732,228c-41.5,28-83.5,55.4-126,81.8c-6.2,3.5-11.5,8.3-15.7,14.1c-4.1,5.8-6.9,12.4-8.2,19.4
	c-20.5,91.4-42,182.5-63.3,273.7c-2.5,9.6-5.4,19-8.9,28.3c-2.4,7.2-6.3,13.9-11.4,19.5c-5.1,5.7-11.3,10.2-18.2,13.4
	c-25.2,12.1-50.5,24-76.2,35c-26.6,11.4-40.4,1.1-38.7-27.8c4.2-72.7,8.5-145.3,12.8-218c0.2-4,0-8.1,0-14.9
	c-7.8,4.4-14.1,8-20.3,11.6c-60.5,34.9-119.6,72.9-185.3,97.4c-26.1,9.8-53.2,16.4-80.9,19.8c-26.9,3.1-47.7-10.2-59.5-36.4
	c-12.1-25.9-19.6-53.7-22.2-82.1c-3-40-6-80.1-8.4-120.2c-1.3-22.7,8.8-37.7,30-48c48.6-23.8,43.1-20.4,75.8,8.1
	c18.9,16.5,38.3,32.3,57.5,48.4C167,352.8,169.3,354.1,171.6,355.4z M403.9,670.2l4.6,2.1c11.6-5.3,22.8-11.9,34.8-15.6
	c20.4-6.4,25.8-22,30.5-40.4c25.3-99.7,51.1-199.2,77.5-298.7c2.8-11,7.9-21.3,14.8-30.3c6.9-9,15.6-16.5,25.5-22.1
	c36.4-21.8,71.4-46,106.7-69.8c16.9-11.4,33.3-23.5,49.1-36.5c13.3-10.9,11.2-19.3-4.8-24.7c-34.9-11.8-70.7-13.7-107-9
	c-46.9,6-87.4,27.7-126.4,52.4c-108.2,68.5-216.3,137.2-324.3,206.2c-19.3,12.3-22.2,12.5-39.3-3.2C124,361,103,340.8,81.5,321
	c-5.7-5.2-11-14.1-20.5-7.4c-9.8,6.9-25.8,8.5-24.1,26c5.5,56.1,8.8,112.6,17.4,168.2c6.7,43.6,21,49.5,63.5,36.8
	c46.1-13.7,88.5-35.7,129.5-60.2c43.5-26,86.5-52.8,129.8-79.1c19-11.5,32.9-5.1,36,16.5c1.5,8.6,2.3,17.3,2.3,26.1
	c-1.4,54.2-3.1,108.3-4.9,162.4c-0.2,5.7-1.9,11.4-2.5,17.2C406.6,641.8,405.3,656,403.9,670.2L403.9,670.2z M317.1,262.2
	l103.6-66.1c-57.1-31.8-116.6-59.2-177.9-81.7c-4.5-1.6-11.1-2.6-14.7-0.5c-11.1,6.7-21.3,15-28.1,20l57.6,63.2
	C276.7,218,295.8,238.9,317.1,262.2L317.1,262.2z"/>
</svg>
